%TF.GenerationSoftware,Altium Limited,Altium Designer,25.4.2 (15)*%
G04 Layer_Color=65535*
%FSLAX45Y45*%
%MOMM*%
%TF.SameCoordinates,1522253E-FD60-42A7-B073-15BD1CB80B22*%
%TF.FilePolarity,Positive*%
%TF.FileFunction,Legend,Top*%
%TF.Part,Single*%
G01*
G75*
%TA.AperFunction,NonConductor*%
%ADD17C,0.25000*%
%ADD18C,0.20000*%
%ADD19C,0.25400*%
D17*
X2782500Y612500D02*
G03*
X2782500Y612500I-12500J0D01*
G01*
X1227500Y645000D02*
G03*
X1227500Y645000I-12500J0D01*
G01*
X782500Y612500D02*
G03*
X782500Y612500I-12500J0D01*
G01*
D18*
X2480000Y837500D02*
X2602500D01*
X2197500Y390000D02*
Y710000D01*
X2480000Y262500D02*
X2602500D01*
Y420000D01*
Y680000D02*
Y837500D01*
X1415000Y400000D02*
Y700000D01*
Y400000D02*
X1485000D01*
Y700000D01*
X1415000D02*
X1485000D01*
X480000Y837500D02*
X602500D01*
X197500Y390000D02*
Y710000D01*
X480000Y262500D02*
X602500D01*
Y420000D01*
Y680000D02*
Y837500D01*
X927500Y542500D02*
Y557500D01*
X1072500Y542500D02*
Y557500D01*
X1827500Y542500D02*
Y557500D01*
X1972500Y542500D02*
Y557500D01*
D19*
X1175400Y125400D02*
Y277751D01*
X1251575D01*
X1276967Y252359D01*
Y201575D01*
X1251575Y176184D01*
X1175400D01*
X1429318Y252359D02*
X1403926Y277751D01*
X1353143D01*
X1327751Y252359D01*
Y150792D01*
X1353143Y125400D01*
X1403926D01*
X1429318Y150792D01*
X1480101Y277751D02*
Y125400D01*
X1556277D01*
X1581669Y150792D01*
Y176184D01*
X1556277Y201575D01*
X1480101D01*
X1556277D01*
X1581669Y226967D01*
Y252359D01*
X1556277Y277751D01*
X1480101D01*
X1632452Y125400D02*
X1683236D01*
X1657844D01*
Y277751D01*
X1632452Y252359D01*
X2550508Y1076175D02*
X2499724D01*
X2525116D01*
Y949217D01*
X2499724Y923825D01*
X2474333D01*
X2448941Y949217D01*
X2702859Y923825D02*
X2601292D01*
X2702859Y1025392D01*
Y1050784D01*
X2677467Y1076175D01*
X2626684D01*
X2601292Y1050784D01*
X1382633Y926175D02*
Y799217D01*
X1408025Y773825D01*
X1458808D01*
X1484200Y799217D01*
Y926175D01*
X1534983Y773825D02*
X1585767D01*
X1560375D01*
Y926175D01*
X1534983Y900784D01*
X650000Y1076175D02*
X599217D01*
X624609D01*
Y949217D01*
X599217Y923825D01*
X573825D01*
X548433Y949217D01*
X700784Y923825D02*
X751567D01*
X726176D01*
Y1076175D01*
X700784Y1050784D01*
X1010767Y924199D02*
X985375Y949591D01*
X934592D01*
X909200Y924199D01*
Y822632D01*
X934592Y797240D01*
X985375D01*
X1010767Y822632D01*
X1061551Y797240D02*
X1112334D01*
X1086943D01*
Y949591D01*
X1061551Y924199D01*
X1912467D02*
X1887075Y949591D01*
X1836292D01*
X1810900Y924199D01*
Y822632D01*
X1836292Y797240D01*
X1887075D01*
X1912467Y822632D01*
X2064818Y797240D02*
X1963251D01*
X2064818Y898807D01*
Y924199D01*
X2039426Y949591D01*
X1988643D01*
X1963251Y924199D01*
%TF.MD5,8b6ade24b955c953c4905ee72e8482a1*%
M02*
